<svg id="eh0yt7m3hxga1" xmlns="http://www.w3.org/2000/svg" xmlns:xlink="http://www.w3.org/1999/xlink" viewBox="0 0 169 62" shape-rendering="geometricPrecision" text-rendering="geometricPrecision"><style><![CDATA[#eh0yt7m3hxga13 {animation: eh0yt7m3hxga13_c_o 4000ms linear infinite normal forwards}@keyframes eh0yt7m3hxga13_c_o { 0% {opacity: 0} 12.500000% {opacity: 1} 100% {opacity: 0.440000} }#eh0yt7m3hxga14 {animation: eh0yt7m3hxga14_c_o 4000ms linear infinite normal forwards}@keyframes eh0yt7m3hxga14_c_o { 0% {opacity: 0} 25% {opacity: 1} 100% {opacity: 0.460000} }#eh0yt7m3hxga15 {animation: eh0yt7m3hxga15_c_o 4000ms linear infinite normal forwards}@keyframes eh0yt7m3hxga15_c_o { 0% {opacity: 0} 37.500000% {opacity: 1} 100% {opacity: 0.420000} }#eh0yt7m3hxga16 {animation: eh0yt7m3hxga16_c_o 4000ms linear infinite normal forwards}@keyframes eh0yt7m3hxga16_c_o { 0% {opacity: 0} 50% {opacity: 1} 100% {opacity: 0.460000} }#eh0yt7m3hxga17 {animation: eh0yt7m3hxga17_c_o 4000ms linear infinite normal forwards}@keyframes eh0yt7m3hxga17_c_o { 0% {opacity: 0} 62.500000% {opacity: 1} 100% {opacity: 0.520000} }#eh0yt7m3hxga18 {animation: eh0yt7m3hxga18_c_o 4000ms linear infinite normal forwards}@keyframes eh0yt7m3hxga18_c_o { 0% {opacity: 0} 75% {opacity: 1} 100% {opacity: 0.520000} }#eh0yt7m3hxga19 {animation: eh0yt7m3hxga19_c_o 4000ms linear infinite normal forwards}@keyframes eh0yt7m3hxga19_c_o { 0% {opacity: 0} 87.500000% {opacity: 1} 100% {opacity: 0.500000} }]]></style><defs><radialGradient id="eh0yt7m3hxga6-fill" cx="0" cy="0" r="0.500000" spreadMethod="pad" gradientUnits="objectBoundingBox" gradientTransform="matrix(1 0 0 1 0.50000000000000 0.50000000000000)"><stop id="eh0yt7m3hxga6-fill-0" offset="0%" stop-color="rgb(246,0,22)"/><stop id="eh0yt7m3hxga6-fill-1" offset="50.600000%" stop-color="rgb(238,73,88)"/><stop id="eh0yt7m3hxga6-fill-2" offset="100%" stop-color="rgb(239,0,21)"/></radialGradient></defs><g id="eh0yt7m3hxga2" transform="matrix(1 0 0 1 -47 -60)"><g id="eh0yt7m3hxga3" transform="matrix(1 0 0 1 70.59399999999999 83.01200000000000)"><g id="eh0yt7m3hxga4" transform="matrix(1 0 0 1 0 0.00001534000000)"><path id="eh0yt7m3hxga5" d="M6.429000,8.676000C9.208369,10.390593,12.193818,11.746057,15.314000,12.710000C13.596973,12.182037,11.810363,11.915057,10.014000,11.918000C8.631485,11.922018,7.253697,12.079652,5.906000,12.388000C4.575538,11.695618,3.331576,10.848408,2.200000,9.864000C3.561267,9.312450,4.979652,8.914002,6.429000,8.676000Z" transform="matrix(1 0 0 1 -4.54979200000000 3.12327960000000)" fill="rgb(170,10,0)" stroke="none" stroke-width="1"/><path id="eh0yt7m3hxga6" d="M0.891000,4.826000C0.538687,3.744391,0.241307,2.645654,0,1.534000C4.544458,-0.104093,9.456522,-0.438353,14.181000,0.569000C15.315937,0.811846,16.432365,1.134310,17.522000,1.534000C17.280700,2.645655,16.983320,3.744393,16.631000,4.826000L16.581000,4.975000C14.088531,4.000891,11.437048,3.497380,8.761000,3.490000C6.083253,3.482777,3.428743,3.986798,0.940000,4.975000Z" transform="matrix(1 0 0 1 -3.31779200000000 7.98827960000000)" fill="url(#eh0yt7m3hxga6-fill)" stroke="none" stroke-width="1"/><path id="eh0yt7m3hxga7" d="M18.131000,17.292000C17.715415,18.242862,17.244269,19.168460,16.720000,20.064000L16.497000,20.464000C13.315234,19.309044,9.828766,19.309044,6.647000,20.464000L6.424000,20.064000C5.929000,19.173000,5.459000,18.257000,5.013000,17.292000C9.229702,15.642186,13.913298,15.642186,18.130000,17.292000Z" transform="matrix(1 0 0 1 -6.12879200000000 -1.01372040000000)" fill="rgb(230,0,20)" stroke="none" stroke-width="1"/><path id="eh0yt7m3hxga8" d="M12.291000,24.227000C13.354476,25.849477,14.591064,27.351623,15.979000,28.707000C15.252698,29.576841,14.467161,30.395457,13.628000,31.157000C12.778486,30.372655,11.977032,29.537808,11.228000,28.657000C10.928000,28.310000,10.659000,27.939000,10.362000,27.568000C10.015000,27.098000,9.669000,26.628000,9.347000,26.108000C9.124000,25.762000,8.902000,25.390000,8.679000,25.019000C9.848914,24.618323,11.060770,24.352601,12.291000,24.227000Z" transform="matrix(1 0 0 1 -8.18379200000000 -5.59572040000000)" fill="rgb(170,10,0)" stroke="none" stroke-width="1"/></g></g><g id="eh0yt7m3hxga9"><g id="eh0yt7m3hxga10" transform="matrix(1 0 0 1 23 46)"><g id="eh0yt7m3hxga11" transform="matrix(1 0 0 1 0 0.14042734999998)"><g id="eh0yt7m3hxga12" transform="matrix(1 0 0 1 -3 0.66894764999999)"><text id="eh0yt7m3hxga13" dx="0" dy="0" font-family="Stencil" font-size="25" transform="matrix(1 0 0 1 66 62)" opacity="0" fill="rgb(112,112,112)" stroke="none" stroke-width="1"><![CDATA[F]]></text><text id="eh0yt7m3hxga14" dx="0" dy="0" font-family="Stencil" font-size="25" transform="matrix(1 0 0 1 81 62)" opacity="0" fill="rgb(170,10,0)" stroke="none" stroke-width="1"><![CDATA[I]]></text><text id="eh0yt7m3hxga15" dx="0" dy="0" font-family="Stencil" font-size="25" transform="matrix(1 0 0 1 92 62)" opacity="0" fill="rgb(112,112,112)" stroke="none" stroke-width="1"><![CDATA[l]]></text><text id="eh0yt7m3hxga16" dx="0" dy="0" font-family="Stencil" font-size="25" transform="matrix(1 0 0 1 106 62)" opacity="0" fill="rgb(170,10,0)" stroke="none" stroke-width="1"><![CDATA[m]]></text><text id="eh0yt7m3hxga17" dx="0" dy="0" font-family="Stencil" font-size="25" transform="matrix(1 0 0 1 126 62)" opacity="0" fill="rgb(112,112,112)" stroke="none" stroke-width="1"><![CDATA[n]]></text><text id="eh0yt7m3hxga18" dx="0" dy="0" font-family="Stencil" font-size="25" transform="matrix(1 0 0 1 144 62)" opacity="0" fill="rgb(170,10,0)" stroke="none" stroke-width="1"><![CDATA[e]]></text><text id="eh0yt7m3hxga19" dx="0" dy="0" font-family="Stencil" font-size="25" transform="matrix(1 0 0 1 160 62)" opacity="0" fill="rgb(112,112,112)" stroke="none" stroke-width="1"><![CDATA[t]]></text></g></g></g></g></g></svg>